<svg xmlns="http://www.w3.org/2000/svg" viewBox="0 0 100 100">
  <defs>
    <linearGradient id="horseGrad" x1="0%" y1="0%" x2="100%" y2="100%">
      <stop offset="0%" style="stop-color:#166534;stop-opacity:1" />
      <stop offset="100%" style="stop-color:#14532d;stop-opacity:1" />
    </linearGradient>
  </defs>
  <circle cx="50" cy="50" r="48" fill="#f0fdf4" stroke="#166534" stroke-width="2"/>
  <path d="M70 35c-3-5-10-8-15-6-2-4-6-7-11-7-8 0-14 6-14 14 0 2 0 4 1 6l-8 18c-1 2 0 4 2 5l6 2c2 1 4-1 4-3l2-8 8 4v15c0 2 2 4 4 4h4c2 0 4-2 4-4V60l10-8c4-3 6-8 6-13 0-2-1-3-3-4z" fill="url(#horseGrad)"/>
  <circle cx="58" cy="32" r="2" fill="#fff"/>
</svg>
